<?xml version="1.0" encoding="UTF-8" standalone="no"?>
<!DOCTYPE svg PUBLIC "-//W3C//DTD SVG 1.1//EN" "http://www.w3.org/Graphics/SVG/1.1/DTD/svg11.dtd">
<svg width="100%" height="100%" viewBox="0 0 1000 1000" version="1.1" xmlns="http://www.w3.org/2000/svg" xmlns:xlink="http://www.w3.org/1999/xlink" xml:space="preserve" xmlns:serif="http://www.serif.com/" style="fill-rule:evenodd;clip-rule:evenodd;stroke-linejoin:round;stroke-miterlimit:1.41421;">
    <g transform="matrix(11.3243,0,0,12.571,-1771.66,-2880.63)">
        <path d="M206.26,263.958L206.26,267.076L203.471,267.076L203.471,263.958L196.346,263.958L196.346,261.509L202.323,251.759L206.26,251.759L206.26,261.439L208.581,261.439L208.581,263.958L206.26,263.958ZM203.506,254.525L199.147,261.439L203.506,261.439L203.506,254.525Z" style="fill:rgb(216,73,73);fill-rule:nonzero;"/>
        <path d="M221.659,259.353C221.659,260.611 221.522,261.736 221.248,262.728C220.975,263.72 220.575,264.558 220.047,265.242C219.52,265.925 218.877,266.447 218.12,266.806C217.362,267.165 216.495,267.345 215.518,267.345C214.674,267.345 213.897,267.197 213.186,266.9C212.475,266.603 211.862,266.136 211.346,265.499C210.831,264.863 210.428,264.048 210.139,263.056C209.85,262.064 209.706,260.876 209.706,259.494C209.706,258.236 209.844,257.111 210.122,256.119C210.399,255.126 210.799,254.289 211.323,253.605C211.846,252.921 212.491,252.4 213.256,252.04C214.022,251.681 214.889,251.501 215.858,251.501C216.702,251.501 217.479,251.65 218.19,251.947C218.901,252.244 219.512,252.708 220.024,253.341C220.536,253.974 220.936,254.787 221.225,255.779C221.514,256.771 221.659,257.962 221.659,259.353ZM212.588,259.4C212.588,259.556 212.588,259.703 212.588,259.839C212.588,259.976 212.596,260.115 212.612,260.255L218.354,256.107C218.081,255.333 217.719,254.761 217.27,254.39C216.821,254.019 216.291,253.833 215.682,253.833C215.245,253.833 214.838,253.945 214.463,254.167C214.088,254.39 213.762,254.732 213.485,255.193C213.207,255.654 212.989,256.232 212.829,256.927C212.668,257.622 212.588,258.447 212.588,259.4ZM218.776,259.447C218.776,259.314 218.772,259.179 218.764,259.042C218.756,258.906 218.752,258.775 218.752,258.65L213.045,262.775C213.295,263.533 213.647,264.095 214.1,264.462C214.553,264.83 215.081,265.013 215.682,265.013C216.12,265.013 216.528,264.9 216.907,264.673C217.286,264.447 217.614,264.105 217.891,263.648C218.168,263.191 218.385,262.613 218.541,261.914C218.698,261.214 218.776,260.392 218.776,259.447Z" style="fill:rgb(216,73,73);fill-rule:nonzero;"/>
        <path d="M232.651,263.958L232.651,267.076L229.862,267.076L229.862,263.958L222.737,263.958L222.737,261.509L228.713,251.759L232.651,251.759L232.651,261.439L234.971,261.439L234.971,263.958L232.651,263.958ZM229.897,254.525L225.538,261.439L229.897,261.439L229.897,254.525Z" style="fill:rgb(216,73,73);fill-rule:nonzero;"/>
    </g>
    <g transform="matrix(0.707107,0.707107,-0.707107,0.707107,513.739,240.324)">
        <rect x="133" y="308" width="91" height="132" style="fill:rgb(227,227,227);"/>
    </g>
    <g transform="matrix(0.707107,0.707107,-0.756612,0.756612,418.324,344.224)">
        <path d="M253,308.616C253,287.855 234.965,271 212.75,271L132.25,271C110.035,271 92,287.855 92,308.616L92,536.384C92,557.145 110.035,574 132.25,574L212.75,574C234.965,574 253,557.145 253,536.384L253,308.616Z" style="fill:rgb(181,181,181);"/>
    </g>
    <path d="M365.677,576.477L389.996,552.158L454.342,616.504L430.822,640.024C406.162,622.093 384.203,600.667 365.677,576.477Z" style="fill:rgb(215,215,215);"/>
    <g transform="matrix(1,0,0,1,2.54824,0)">
        <path d="M436.307,128.454C486.32,94.914 546.471,75.342 611.158,75.342C784.735,75.342 925.658,216.265 925.658,389.842C925.658,452.694 907.181,511.264 875.367,560.412L770.845,577.569C823.952,532.34 857.658,464.996 857.658,389.842C857.658,253.795 747.205,143.342 611.158,143.342C530.86,143.342 459.479,181.819 414.461,241.327C418.723,205.958 429.568,157.057 436.307,128.454Z" style="fill:rgb(207,207,207);"/>
    </g>
    <path d="M624.5,62C798.077,62 939,202.923 939,376.5C939,550.077 798.077,691 624.5,691C450.923,691 310,550.077 310,376.5C310,202.923 450.923,62 624.5,62ZM624.5,130C760.547,130 871,240.453 871,376.5C871,512.547 760.547,623 624.5,623C488.453,623 378,512.547 378,376.5C378,240.453 488.453,130 624.5,130Z" style="fill:rgb(235,235,235);"/>
</svg>
