<?xml version="1.0" encoding="UTF-8" standalone="no"?>
<!DOCTYPE svg PUBLIC "-//W3C//DTD SVG 1.1//EN" "http://www.w3.org/Graphics/SVG/1.1/DTD/svg11.dtd">
<svg width="100%" height="100%" viewBox="0 0 1000 650" version="1.1" xmlns="http://www.w3.org/2000/svg" xmlns:xlink="http://www.w3.org/1999/xlink" xml:space="preserve" xmlns:serif="http://www.serif.com/" style="fill-rule:evenodd;clip-rule:evenodd;stroke-linecap:round;stroke-linejoin:round;stroke-miterlimit:1.5;">
    <g transform="matrix(1,0,0,1,0,-175)">
        <rect x="175.5" y="303" width="579.5" height="396" style="fill:rgb(217,217,217);stroke:rgb(95,95,95);stroke-width:9.66px;"/>
    </g>
    <g transform="matrix(1,0,0,1,0,-175)">
        <path d="M185.783,689L169.194,689C162.777,689 156.623,686.451 152.086,681.914C147.549,677.377 145,671.223 145,664.806C145,593.331 145,383.669 145,312.194C145,305.777 147.549,299.623 152.086,295.086C156.623,290.549 162.777,288 169.194,288L749.806,288C756.223,288 762.377,290.549 766.914,295.086C771.451,299.623 774,305.777 774,312.194L774,690L740,690L740,689C740,689 740,369.053 740,325.814C740,324.537 739.493,323.313 738.59,322.41C737.687,321.507 736.463,321 735.186,321C680.592,321 180,321 180,321L180,689L185.783,689Z" style="fill:rgb(242,242,242);stroke:rgb(95,95,95);stroke-width:9.66px;"/>
        <g>
            <path d="M22,689C22,689 22,689.001 22,689.002C22,700.671 26.635,711.862 34.887,720.113C43.138,728.365 54.329,733 65.998,733C236.065,733 841,733 841,733L845,690L22,689Z" style="fill:rgb(242,242,242);stroke:rgb(95,95,95);stroke-width:9.66px;"/>
            <path d="M408,690C408,690 408,690.001 408,690.002C408,696.101 410.423,701.951 414.736,706.264C419.049,710.577 424.899,713 430.998,713C451.041,713 479.959,713 500.002,713C506.101,713 511.951,710.577 516.264,706.264C520.577,701.951 523,696.101 523,690.002C523,690.001 523,690 523,690" style="fill:none;stroke:rgb(95,95,95);stroke-width:9.66px;"/>
        </g>
    </g>
    <g transform="matrix(1,0,0,1,0,-175)">
        <g transform="matrix(1,0,0,1,-8.5,-12)">
            <circle cx="184" cy="315" r="102" style="fill:rgb(242,159,120);stroke:rgb(95,95,95);stroke-width:9.66px;"/>
        </g>
        <g transform="matrix(0.738562,0,0,0.738562,-344.078,1.29739)">
            <path d="M712.99,332.591C706.688,331.803 700.312,331.803 694.01,332.591C691.782,340.582 688.065,347.807 682.861,354.267C681.81,354.667 680.771,355.097 679.746,355.557C671.498,354.67 663.761,352.189 656.535,348.114C651.521,352.013 647.013,356.521 643.114,361.535C647.189,368.761 649.67,376.498 650.557,384.746C650.097,385.771 649.667,386.81 649.267,387.861C642.807,393.065 635.582,396.782 627.591,399.01C626.803,405.312 626.803,411.688 627.591,417.99C635.582,420.218 642.807,423.935 649.267,429.139C649.667,430.19 650.097,431.229 650.557,432.254C649.67,440.502 647.189,448.239 643.114,455.465C647.013,460.479 651.521,464.987 656.535,468.886C663.761,464.811 671.498,462.33 679.746,461.443C680.771,461.903 681.81,462.333 682.861,462.733C688.065,469.193 691.782,476.418 694.01,484.409C700.312,485.197 706.688,485.197 712.99,484.409C715.218,476.418 718.935,469.193 724.139,462.733C725.19,462.333 726.229,461.903 727.254,461.443C735.502,462.33 743.239,464.811 750.465,468.886C755.479,464.987 759.987,460.479 763.886,455.465C759.811,448.239 757.33,440.502 756.443,432.254C756.903,431.229 757.333,430.19 757.733,429.139C764.193,423.935 771.418,420.218 779.409,417.99C780.197,411.688 780.197,405.312 779.409,399.01C771.418,396.782 764.193,393.065 757.733,387.861C757.333,386.81 756.903,385.771 756.443,384.746C757.33,376.498 759.811,368.761 763.886,361.535C759.987,356.521 755.479,352.013 750.465,348.114C743.239,352.189 735.502,354.67 727.254,355.557C726.229,355.097 725.19,354.667 724.139,354.267C718.935,347.807 715.218,340.582 712.99,332.591ZM703.5,377.606C720.551,377.606 734.394,391.449 734.394,408.5C734.394,425.551 720.551,439.394 703.5,439.394C686.449,439.394 672.606,425.551 672.606,408.5C672.606,391.449 686.449,377.606 703.5,377.606Z" style="fill:rgb(242,242,242);stroke:rgb(95,95,95);stroke-width:13.08px;"/>
        </g>
    </g>
    <g transform="matrix(1,0,0,1,0,-175)">
        <path d="M345,405L345,789" style="fill:none;stroke:rgb(95,95,95);stroke-width:9.66px;"/>
        <path d="M245,405L245,789" style="fill:none;stroke:rgb(95,95,95);stroke-width:9.66px;"/>
        <path d="M245,447L345,447" style="fill:none;stroke:rgb(95,95,95);stroke-width:9.66px;"/>
        <path d="M245,508L345,508" style="fill:none;stroke:rgb(95,95,95);stroke-width:9.66px;"/>
        <path d="M245,567L345,567" style="fill:none;stroke:rgb(95,95,95);stroke-width:9.66px;"/>
        <path d="M245,627L345,627" style="fill:none;stroke:rgb(95,95,95);stroke-width:9.66px;"/>
        <path d="M245,748L345,748" style="fill:none;stroke:rgb(95,95,95);stroke-width:9.66px;"/>
    </g>
    <g transform="matrix(1,0,0,1,0,-175)">
        <rect x="65" y="670" width="126" height="26" style="fill:rgb(255,223,126);stroke:rgb(95,95,95);stroke-width:9.66px;"/>
        <path d="M73,696L81,783L173,783L183,696L73,696Z" style="fill:rgb(255,223,126);stroke:rgb(95,95,95);stroke-width:9.66px;"/>
        <path d="M73,670C73,670 72.373,616 128,616C183.627,616 183,670 183,670" style="fill:none;stroke:rgb(95,95,95);stroke-width:9.66px;"/>
        <path d="M88,670C88,670 88,694 88,710C88,713.713 89.475,717.274 92.101,719.899C94.726,722.525 98.287,724 102,724C102.167,724 102.333,724 102.5,724C106.08,724 109.514,722.578 112.046,720.046C114.578,717.514 116,714.08 116,710.5C116,709.493 116,708.485 116,707.5C116,701.701 120.701,697 126.5,697C126.5,697 126.5,697 126.5,697C129.285,697 131.955,698.106 133.925,700.075C135.894,702.045 137,704.715 137,707.5C137,712.674 137,718.973 137,724.5C137,728.08 138.422,731.514 140.954,734.046C143.486,736.578 146.92,738 150.5,738C150.5,738 150.5,738 150.5,738C157.956,738 164,731.956 164,724.5C164,704.672 164,670 164,670L88,670Z" style="fill:rgb(242,242,242);stroke:rgb(95,95,95);stroke-width:9.66px;"/>
    </g>
    <g transform="matrix(1,0,0,1,0,-175)">
        <path d="M433.252,601C430.002,601 426.886,599.709 424.588,597.412C422.291,595.114 421,591.998 421,588.748C421,561.228 421,494.772 421,467.252C421,464.002 422.291,460.886 424.588,458.588C426.886,456.291 430.002,455 433.252,455C474.04,455 604.96,455 645.748,455C648.998,455 652.114,456.291 654.412,458.588C656.709,460.886 658,464.002 658,467.252C658,494.772 658,561.228 658,588.748C658,591.998 656.709,595.114 654.412,597.412C652.114,599.709 648.998,601 645.748,601C604.96,601 474.04,601 433.252,601Z" style="fill:rgb(242,242,242);stroke:rgb(95,95,95);stroke-width:9.66px;"/>
        <rect x="439" y="473" width="203" height="110" style="fill:rgb(148,202,236);stroke:rgb(95,95,95);stroke-width:9.66px;"/>
        <path d="M439,583L518,511L592,583L439,583Z" style="fill:rgb(242,242,242);stroke:rgb(95,95,95);stroke-width:9.66px;"/>
        <path d="M564.791,556.526L592,532L642,583L592,583L564.791,556.526Z" style="fill:rgb(242,242,242);stroke:rgb(95,95,95);stroke-width:9.66px;"/>
        <g transform="matrix(1,0,0,1,6,-2)">
            <circle cx="601" cy="502" r="15" style="fill:rgb(242,242,242);stroke:rgb(95,95,95);stroke-width:9.66px;"/>
        </g>
        <path d="M540.5,425L488,455L592,455L540.5,425Z" style="fill:none;stroke:rgb(95,95,95);stroke-width:9.66px;"/>
    </g>
    <g transform="matrix(1,0,0,1,0,-175)">
        <path d="M567,372L554,384C554,384 801.035,669.723 801,670C800.965,670.277 828,584 828,584L567,372Z" style="fill:rgb(166,154,199);stroke:rgb(95,95,95);stroke-width:9.66px;"/>
        <g transform="matrix(1,0,0,1,16,0)">
            <circle cx="523.5" cy="360.5" r="11.5" style="fill:rgb(242,242,242);stroke:rgb(95,95,95);stroke-width:9.66px;"/>
        </g>
        <path d="M944,708L774,708L824,554C824,554 885.897,554 920.783,554C933.605,554 944,564.395 944,577.217L944,708ZM917,679L917,584L842,584L813,679L917,679Z" style="fill:rgb(166,154,199);stroke:rgb(95,95,95);stroke-width:9.66px;"/>
        <path d="M720.5,708C698.685,708 681,725.685 681,747.5C681,747.5 681,747.5 681,747.5C681,769.315 698.685,787 720.5,787C776.526,787 878.474,787 934.5,787C956.315,787 974,769.315 974,747.5C974,747.5 974,747.5 974,747.5C974,725.685 956.315,708 934.5,708C878.474,708 776.526,708 720.5,708Z" style="fill:rgb(166,154,199);stroke:rgb(95,95,95);stroke-width:9.66px;"/>
        <path d="M730,729C724.696,729 719.609,731.107 715.858,734.858C712.107,738.609 710,743.696 710,749C710,749 710,749 710,749C710,760.046 718.954,769 730,769C775.2,769 884.8,769 930,769C935.304,769 940.391,766.893 944.142,763.142C947.893,759.391 950,754.304 950,749C950,749 950,749 950,749C950,737.954 941.046,729 930,729C884.8,729 775.2,729 730,729Z" style="fill:rgb(166,154,199);stroke:rgb(95,95,95);stroke-width:9.66px;"/>
        <g>
            <circle cx="730" cy="749" r="20" style="fill:rgb(242,242,242);stroke:rgb(95,95,95);stroke-width:9.66px;"/>
            <g transform="matrix(1,0,0,1,102,0)">
                <circle cx="730" cy="749" r="20" style="fill:rgb(242,242,242);stroke:rgb(95,95,95);stroke-width:9.66px;"/>
            </g>
            <g transform="matrix(1,0,0,1,200,0)">
                <circle cx="730" cy="749" r="20" style="fill:rgb(242,242,242);stroke:rgb(95,95,95);stroke-width:9.66px;"/>
            </g>
        </g>
        <path d="M550,370L558,378" style="fill:none;stroke:rgb(95,95,95);stroke-width:9.66px;"/>
        <g transform="matrix(1,0,0,1,0,4)">
            <path d="M539.5,372L539.5,394C539.5,394 543.181,399.121 546.378,403.569C549.174,407.459 549.342,412.654 546.802,416.716C546.802,416.717 546.802,416.717 546.801,416.718C545.31,419.105 542.886,420.757 540.119,421.273C537.352,421.789 534.495,421.121 532.243,419.432C530.4,418.05 529,417 529,417" style="fill:none;stroke:rgb(95,95,95);stroke-width:9.66px;"/>
        </g>
    </g>
</svg>
