<?xml version="1.0" encoding="UTF-8" standalone="no"?>
<!DOCTYPE svg PUBLIC "-//W3C//DTD SVG 1.1//EN" "http://www.w3.org/Graphics/SVG/1.1/DTD/svg11.dtd">
<svg width="100%" height="100%" viewBox="0 0 2000 2000" version="1.1" xmlns="http://www.w3.org/2000/svg" xmlns:xlink="http://www.w3.org/1999/xlink" xml:space="preserve" xmlns:serif="http://www.serif.com/" style="fill-rule:evenodd;clip-rule:evenodd;stroke-linecap:round;stroke-linejoin:round;stroke-miterlimit:1;">
    <g transform="matrix(1.89178,0,0,1.89178,-855.666,-877.515)">
        <g transform="matrix(0.916314,0,0,0.916314,80.2971,82.3475)">
            <path d="M1167,1483L943,1301L802,1342L734,1436L1167,1483Z" style="fill:rgb(157,127,205);stroke:url(#_Radial1);stroke-width:14.32px;"/>
        </g>
        <g transform="matrix(0.916314,0,0,0.916314,80.2971,82.3475)">
            <path d="M734,1436L596,1043L802,1342L734,1436Z" style="fill:rgb(147,104,230);stroke:url(#_Radial2);stroke-width:14.32px;"/>
        </g>
        <g transform="matrix(0.916314,0,0,0.916314,80.2971,82.3475)">
            <path d="M943,1301L992,1054L1125,945L1323,903L1167,1483L943,1301Z" style="fill:rgb(217,184,223);stroke:url(#_Radial3);stroke-width:14.32px;"/>
        </g>
        <g transform="matrix(0.916314,0,0,0.916314,80.2971,82.3475)">
            <path d="M992,1054L829,892L596,1043L802,1342L943,1301L992,1054Z" style="fill:rgb(198,156,237);stroke:url(#_Radial4);stroke-width:14.32px;"/>
        </g>
        <g transform="matrix(0.916314,0,0,0.916314,80.2971,82.3475)">
            <path d="M1125,945L1231,692.796L1323,903L1125,945Z" style="fill:rgb(239,229,232);stroke:url(#_Radial5);stroke-width:14.32px;"/>
        </g>
        <g transform="matrix(0.916314,0,0,0.916314,80.2971,82.3475)">
            <path d="M829,892L992,1054L1125,945L1231,692.796L754,485L829,892Z" style="fill:rgb(222,202,239);stroke:url(#_Radial6);stroke-width:14.32px;"/>
        </g>
        <g transform="matrix(0.916314,0,0,0.916314,80.2971,82.3475)">
            <path d="M596,1043L829,892L754,485L596,1043Z" style="fill:rgb(185,166,237);stroke:url(#_Radial7);stroke-width:14.32px;"/>
        </g>
    </g>
    <defs>
        <radialGradient id="_Radial1" cx="0" cy="0" r="1" gradientUnits="userSpaceOnUse" gradientTransform="matrix(666.16,0,0,666.16,626.42,984)"><stop offset="0" style="stop-color:rgb(147,104,230);stop-opacity:1"/><stop offset="0.5" style="stop-color:rgb(193,160,242);stop-opacity:1"/><stop offset="1" style="stop-color:rgb(238,216,255);stop-opacity:1"/></radialGradient>
        <radialGradient id="_Radial2" cx="0" cy="0" r="1" gradientUnits="userSpaceOnUse" gradientTransform="matrix(666.16,0,0,666.16,626.42,984)"><stop offset="0" style="stop-color:rgb(147,104,230);stop-opacity:1"/><stop offset="0.5" style="stop-color:rgb(193,160,242);stop-opacity:1"/><stop offset="1" style="stop-color:rgb(238,216,255);stop-opacity:1"/></radialGradient>
        <radialGradient id="_Radial3" cx="0" cy="0" r="1" gradientUnits="userSpaceOnUse" gradientTransform="matrix(666.16,0,0,666.16,626.42,984)"><stop offset="0" style="stop-color:rgb(147,104,230);stop-opacity:1"/><stop offset="0.5" style="stop-color:rgb(193,160,242);stop-opacity:1"/><stop offset="1" style="stop-color:rgb(238,216,255);stop-opacity:1"/></radialGradient>
        <radialGradient id="_Radial4" cx="0" cy="0" r="1" gradientUnits="userSpaceOnUse" gradientTransform="matrix(666.16,0,0,666.16,626.42,984)"><stop offset="0" style="stop-color:rgb(147,104,230);stop-opacity:1"/><stop offset="0.5" style="stop-color:rgb(193,160,242);stop-opacity:1"/><stop offset="1" style="stop-color:rgb(238,216,255);stop-opacity:1"/></radialGradient>
        <radialGradient id="_Radial5" cx="0" cy="0" r="1" gradientUnits="userSpaceOnUse" gradientTransform="matrix(666.16,0,0,666.16,626.42,984)"><stop offset="0" style="stop-color:rgb(147,104,230);stop-opacity:1"/><stop offset="0.5" style="stop-color:rgb(193,160,242);stop-opacity:1"/><stop offset="1" style="stop-color:rgb(238,216,255);stop-opacity:1"/></radialGradient>
        <radialGradient id="_Radial6" cx="0" cy="0" r="1" gradientUnits="userSpaceOnUse" gradientTransform="matrix(666.16,0,0,666.16,626.42,984)"><stop offset="0" style="stop-color:rgb(147,104,230);stop-opacity:1"/><stop offset="0.5" style="stop-color:rgb(193,160,242);stop-opacity:1"/><stop offset="1" style="stop-color:rgb(238,216,255);stop-opacity:1"/></radialGradient>
        <radialGradient id="_Radial7" cx="0" cy="0" r="1" gradientUnits="userSpaceOnUse" gradientTransform="matrix(666.16,0,0,666.16,626.42,984)"><stop offset="0" style="stop-color:rgb(147,104,230);stop-opacity:1"/><stop offset="0.5" style="stop-color:rgb(193,160,242);stop-opacity:1"/><stop offset="1" style="stop-color:rgb(238,216,255);stop-opacity:1"/></radialGradient>
    </defs>
</svg>
