<?xml version="1.0" ?><svg height="600mm" id="svg4658" version="1.1" viewBox="0 0 2125.9843 2125.9842" width="600mm" xmlns="http://www.w3.org/2000/svg" xmlns:cc="http://creativecommons.org/ns#" xmlns:dc="http://purl.org/dc/elements/1.1/" xmlns:inkscape="http://www.inkscape.org/namespaces/inkscape" xmlns:rdf="http://www.w3.org/1999/02/22-rdf-syntax-ns#" xmlns:sodipodi="http://sodipodi.sourceforge.net/DTD/sodipodi-0.dtd" xmlns:svg="http://www.w3.org/2000/svg"><defs id="defs4660"/><g id="layer1" transform="translate(0,1073.6222)"><path d="m 181.75611,-401.8307 1759.18989,0 c 77.3883,0 139.6902,68.56757 139.6902,153.73891 L 1060.0111,494.52827 42.065886,-248.09179 c 0,-85.17134 62.301904,-153.73891 139.690224,-153.73891 z" id="path5091" style="opacity:1;fill:#989691;fill-opacity:1;stroke:none;stroke-width:1;stroke-miterlimit:4;stroke-dasharray:none;stroke-opacity:1"/><path d="m 1060.4004,-1064.3604 c -15.3448,-0.091 -27.0525,9.0967 -39.922,17.4541 -276.62336,179.63671 -754.122,542.53258 -919.57464,669.30095 -18.154324,13.90968 -27.896462,27.95359 -33.124965,38.66702 -15.96257,24.99395 -25.321577,55.50043 -25.321577,88.50403 l 2038.569082,0 c 0,-37.03104 -11.7823,-70.92187 -31.4564,-97.40459 -7.4653,-10.72601 -17.3257,-21.99109 -30.1803,-31.74472 -168.8812,-128.14083 -644.693,-486.53617 -919.2971,-666.83139 -12.8405,-8.4307 -24.3316,-17.8548 -39.6921,-17.9454 z" id="path5093" style="opacity:1;fill:#ebeae3;fill-opacity:1;stroke:none;stroke-width:1;stroke-miterlimit:4;stroke-dasharray:none;stroke-opacity:1"/><rect height="1082.3823" id="rect5095" rx="0" ry="0" style="opacity:1;fill:#c3dde3;fill-opacity:1;stroke:none;stroke-width:1.00000012;stroke-miterlimit:4;stroke-dasharray:none;stroke-opacity:1" transform="matrix(0.99999694,-0.00247446,0.00185735,0.99999828,0,0)" width="1406.6293" x="350.64505" y="-486.21643"/><path d="m 2080.3043,-249.19904 z m 0,0 0,1148.95852 c 0,78.81518 -62.3007,142.26792 -139.689,142.26792 l -1759.18846,0 880.93426,-548.60642 z" id="path5107" style="opacity:1;fill:#eeede9;fill-opacity:1;stroke:none;stroke-width:1;stroke-miterlimit:4;stroke-dasharray:none;stroke-opacity:1"/><path d="m 40.835851,-253.1043 z m 0,0 0,1148.95853 c 0,78.81504 62.300669,142.26777 139.688999,142.26777 l 1759.18825,0 -880.9342,-548.60641 z" id="path5109" style="opacity:1;fill:#e9e7e0;fill-opacity:1;stroke:none;stroke-width:1;stroke-miterlimit:4;stroke-dasharray:none;stroke-opacity:1"/></g></svg>
